<svg fill="#ffffff" width="64px" height="64px" viewBox="0 0 32 32" id="icon" xmlns="http://www.w3.org/2000/svg"><g id="SVGRepo_bgCarrier" stroke-width="0"></g><g id="SVGRepo_tracerCarrier" stroke-linecap="round" stroke-linejoin="round"></g><g id="SVGRepo_iconCarrier"><defs><style>.cls-1{fill:none;}</style></defs><title>blog</title><rect x="4" y="24" width="10" height="2"></rect><rect x="4" y="18" width="10" height="2"></rect><path d="M26,14H6a2,2,0,0,1-2-2V6A2,2,0,0,1,6,4H26a2,2,0,0,1,2,2v6A2,2,0,0,1,26,14ZM6,6v6H26V6Z" transform="translate(0 0)"></path><path d="M26,28H20a2,2,0,0,1-2-2V20a2,2,0,0,1,2-2h6a2,2,0,0,1,2,2v6A2,2,0,0,1,26,28Zm-6-8v6h6V20Z" transform="translate(0 0)"></path><rect id="_Transparent_Rectangle_" data-name="<Transparent Rectangle>" class="cls-1" width="32" height="32"></rect></g></svg>